<svg width="361" height="86" version="1.1" xmlns="http://www.w3.org/2000/svg" desc="Created with imagetracer.js version 1.2.6" ><path fill="rgb(0,0,0)" stroke="rgb(0,0,0)" stroke-width="1" opacity="0" d="M 0 0 L 360.5 0 L 361 0.5 L 361 86 L 0.5 86 L 0 85.5 L 0 0 Z M 46 5 L 43 9 L 46 11 L 53 11 L 63 15 L 70 23 L 73 30 L 73 35 L 76 37 L 79 36 L 79 28 L 74 18 Q 66 5 46 5 Z M 177 9 L 168 36 L 169 37 L 174 37 L 176 32 Q 175 28 180 30 L 183 31 L 186 30 L 188 36 L 189 37 L 194 37 L 185 11 L 185 9 L 177 9 Z M 202 9 L 200 10 Q 195 12 196 20 L 201 24 Q 208 24 211 29 L 209 32 Q 200 33 199 28 Q 196 29 196 33 L 203 37 Q 209 38 213 36 L 217 30 L 216 25 L 210 20 Q 204 21 202 18 L 204 14 Q 210 13 213 16 Q 216 15 215 11 Q 211 8 202 9 Z M 227 9 L 221 12 L 219 12 L 219 17 L 224 16 L 225 16 L 225 32 L 219 32 L 220 37 L 237 37 L 237 32 L 232 32 L 231 32 L 231 9 L 227 9 Z M 241 9 L 241 18 L 241 20 L 240 25 L 245 26 Q 245 22 251 23 Q 255 25 253 31 L 247 32 L 244 28 L 239 31 L 240 33 L 246 37 L 255 36 L 259 31 L 258 22 L 254 18 L 248 19 L 246 20 L 246 14 L 257 14 Q 259 13 257 12 L 257 9 L 241 9 Z M 270 9 L 264 12 L 262 12 L 262 17 L 267 16 L 268 16 L 268 32 L 262 32 L 263 37 L 280 37 L 280 32 L 275 32 L 274 32 L 274 9 L 270 9 Z M 289 9 L 287 10 L 282 17 L 284 25 L 288 27 Q 293 29 295 26 Q 297 27 296 25 L 297 25 L 296 30 Q 295 33 290 32 L 288 29 L 286 30 Q 282 29 283 33 L 289 37 L 298 36 Q 302 33 303 28 Q 304 18 301 13 Q 298 7 289 9 Z M 314 9 L 309 11 L 307 16 L 308 24 Q 310 28 319 27 L 322 25 L 321 30 Q 320 33 315 32 L 313 29 L 307 32 L 309 35 L 313 37 Q 320 38 324 35 L 328 26 L 328 20 L 326 14 Q 324 7 314 9 Z M 337 9 L 335 10 Q 332 11 332 15 Q 335 20 338 14 Q 343 13 344 16 Q 345 20 342 20 Q 334 17 336 24 Q 338 26 344 25 Q 346 26 345 30 Q 344 33 339 32 L 336 28 L 333 29 Q 330 28 331 33 L 338 37 L 347 36 L 351 31 L 350 25 L 346 22 L 350 17 L 349 13 Q 346 7 337 9 Z M 46 13 L 43 17 Q 45 20 53 19 L 60 23 L 64 30 L 64 35 Q 65 38 69 37 L 71 34 L 67 23 Q 61 13 46 13 Z M 45 21 L 43 24 L 53 27 L 59 37 L 62 36 L 60 28 L 52 21 L 45 21 Z M 37 27 L 29 31 L 26 37 Q 25 45 28 49 Q 32 54 40 55 L 49 53 Q 54 50 56 43 Q 56 36 53 33 L 45 27 L 37 27 Z M 190 39 L 189 40 L 169 40 L 168 44 L 352 44 L 353 43 L 353 40 L 195 40 L 193 40 L 190 39 Z M 4 48 L 4 72 L 6 76 Q 10 82 19 83 L 29 81 L 31 79 L 38 83 Q 46 84 51 80 L 55 75 L 55 64 L 59 60 L 64 61 L 65 63 L 65 79 L 67 80 L 73 79 L 75 77 L 75 62 L 73 58 L 66 52 Q 57 51 53 53 Q 46 56 45 65 L 46 70 L 45 73 L 39 74 L 36 72 L 36 60 L 35 58 Q 33 54 28 55 L 26 57 L 26 72 L 24 74 Q 17 75 15 73 L 14 71 L 14 51 L 12 48 L 4 48 Z M 92 62 L 92 74 Q 96 75 94 70 L 99 69 Q 102 70 100 65 Q 98 61 92 62 Z M 101 62 L 101 64 Q 102 66 104 64 L 104 74 L 107 74 L 107 64 L 111 64 L 110 62 L 101 62 Z M 115 62 L 117 72 Q 116 75 120 74 Q 122 73 121 68 Q 125 67 123 73 L 127 74 L 129 67 Q 131 61 127 62 L 126 69 L 124 64 L 121 62 L 119 69 L 117 64 Q 118 61 115 62 Z M 131 62 L 131 74 L 134 74 L 134 63 L 131 62 Z M 136 62 L 136 74 L 139 74 L 139 69 L 142 69 Q 143 71 144 69 L 144 67 L 139 67 L 140 64 L 144 65 L 144 62 L 136 62 Z M 146 62 L 146 74 L 149 74 L 149 64 L 146 62 Z M 155 62 L 150 74 Q 154 75 153 73 L 157 71 L 158 73 Q 157 76 161 74 L 158 64 L 155 62 Z M 163 62 L 163 69 L 163 71 Q 162 75 165 74 L 166 67 L 171 74 L 173 74 L 173 64 L 170 62 L 170 69 L 166 64 Q 167 60 163 62 Z M 183 62 L 180 63 Q 178 65 179 72 L 182 74 L 189 74 L 189 67 L 184 67 Q 183 71 186 70 Q 187 74 182 72 L 181 69 L 184 64 L 187 65 Q 188 67 189 65 Q 188 61 183 62 Z M 191 62 L 191 74 L 199 74 L 199 72 L 194 72 L 194 63 L 191 62 Z M 204 62 L 200 67 L 201 72 Q 202 75 209 74 L 212 69 L 211 65 Q 209 61 204 62 Z M 214 62 L 214 74 L 222 74 L 223 73 Q 224 68 221 68 L 222 64 Q 220 60 214 62 Z M 229 62 L 224 72 Q 223 75 226 74 L 229 71 L 232 73 Q 231 76 235 74 L 231 64 Q 232 61 229 62 Z M 236 62 L 236 74 L 244 74 L 244 72 L 239 72 L 239 63 L 236 62 Z M 250 62 L 250 65 L 250 69 Q 248 75 252 74 L 253 67 L 255 72 Q 256 75 260 74 L 260 63 L 257 62 L 257 69 L 253 64 Q 254 60 250 62 Z M 264 62 L 262 64 Q 261 71 265 74 Q 270 75 272 73 L 272 63 L 270 62 Q 271 69 269 72 L 265 71 L 265 63 L 264 62 Z M 277 62 Q 274 62 274 67 Q 274 69 279 69 L 280 72 L 277 71 Q 273 70 274 73 Q 276 76 282 74 Q 284 73 283 70 L 277 66 Q 278 63 280 65 Q 283 66 282 64 Q 281 61 277 62 Z M 287 62 L 284 74 L 291 71 L 292 74 L 295 74 L 291 64 L 291 62 L 287 62 Z M 296 62 L 296 74 L 299 74 L 300 67 L 303 73 Q 302 76 306 74 L 306 63 L 304 62 L 304 69 L 301 65 Q 300 61 296 62 Z M 308 62 L 308 65 L 310 64 L 311 65 L 311 74 L 314 74 L 314 65 L 317 64 L 317 62 L 308 62 Z M 321 62 L 318 72 Q 317 75 320 74 L 321 72 L 323 72 L 325 71 L 327 74 L 329 74 L 325 65 Q 326 60 321 62 Z M 330 62 L 330 74 L 333 74 L 333 69 L 335 69 L 336 72 Q 335 76 339 74 L 337 69 L 339 65 Q 337 60 330 62 Z M 345 62 L 340 74 L 347 71 L 348 74 L 351 74 L 347 64 Q 348 61 345 62 Z " /><path fill="rgb(0,0,0)" stroke="rgb(0,0,0)" stroke-width="1" opacity="0" d="M 290.5 14 Q 295 13 296 15.5 L 297 18.5 L 294.5 22 Q 289 23 288 19.5 Q 287.3 14.8 290.5 14 Z " /><path fill="rgb(0,0,0)" stroke="rgb(0,0,0)" stroke-width="1" opacity="0" d="M 314.5 14 Q 319.8 12.8 321 15.5 Q 322.3 20.8 319.5 22 Q 314.3 23.3 313 20.5 Q 311.8 15.3 314.5 14 Z " /><path fill="rgb(0,0,0)" stroke="rgb(0,0,0)" stroke-width="1" opacity="0" d="M 180 16 Q 183.3 14.7 182 19.5 L 184 25.5 L 179.5 26 Q 176.9 26.8 178 23.5 L 180 16 Z " /><path fill="rgb(0,0,0)" stroke="rgb(0,0,0)" stroke-width="1" opacity="0" d="M 37.5 35 Q 45.2 33.3 47 37.5 Q 48.5 44.5 44.5 46 L 38.5 47 L 34 43.5 Q 33.4 38.1 35 36 L 37.5 35 Z " /><path fill="rgb(0,0,0)" stroke="rgb(0,0,0)" stroke-width="1" opacity="0" d="M 94 64 L 98 65.5 L 96.5 68 Q 91.9 69.2 94 64 Z " /><path fill="rgb(0,0,0)" stroke="rgb(0,0,0)" stroke-width="1" opacity="0" d="M 205.5 64 L 208 65.5 L 209 69.5 L 208 72 Q 204.2 73 203 70.5 Q 202 65 205.5 64 Z " /><path fill="rgb(0,0,0)" stroke="rgb(0,0,0)" stroke-width="1" opacity="0" d="M 216 64 L 220 65.5 L 216 67 L 216 64 Z " /><path fill="rgb(0,0,0)" stroke="rgb(0,0,0)" stroke-width="1" opacity="0" d="M 333 64 L 336 65.5 Q 336.7 68.5 333 67 L 333 64 Z " /><path fill="rgb(0,0,0)" stroke="rgb(0,0,0)" stroke-width="1" opacity="0" d="M 155.5 66 L 157 68.5 L 154.5 69 L 155 67.5 L 155.5 66 Z " /><path fill="rgb(0,0,0)" stroke="rgb(0,0,0)" stroke-width="1" opacity="0" d="M 229.5 66 L 230 69 Q 227.3 70.1 228 67.5 L 229.5 66 Z " /><path fill="rgb(0,0,0)" stroke="rgb(0,0,0)" stroke-width="1" opacity="0" d="M 289.5 66 L 290 69 Q 287.3 70.1 288 67.5 L 289.5 66 Z " /><path fill="rgb(0,0,0)" stroke="rgb(0,0,0)" stroke-width="1" opacity="0" d="M 322 66 Q 325.3 64.9 324 69 Q 320.7 70.1 322 66 Z " /><path fill="rgb(0,0,0)" stroke="rgb(0,0,0)" stroke-width="1" opacity="0" d="M 345.5 66 L 346 69 Q 343.3 70.1 344 67.5 L 345.5 66 Z " /><path fill="rgb(0,0,0)" stroke="rgb(0,0,0)" stroke-width="1" opacity="0" d="M 216 69 Q 221.6 67.1 220 72 Q 214.4 73.9 216 69 Z " /><path fill="rgb(27,61,74)" stroke="rgb(27,61,74)" stroke-width="1" opacity="0.09411764705882353" d="M 45.5 5 L 52 5.5 L 45.5 6 L 44 7.5 L 45.5 10 L 51 10.5 L 45.5 11 L 43 7.5 L 45.5 5 Z " /><path fill="rgb(27,61,74)" stroke="rgb(27,61,74)" stroke-width="1" opacity="0.09411764705882353" d="M 53.5 6 L 60 7.5 L 57.5 8 L 53.5 7 L 53.5 6 Z " /><path fill="rgb(27,61,74)" stroke="rgb(27,61,74)" stroke-width="1" opacity="0.09411764705882353" d="M 61.5 8 Q 69.3 11.3 74 17.5 Q 78.8 22.2 79 31.5 L 78 31.5 L 77 24.5 L 69.5 14 L 62.5 10 L 61.5 8 Z " /><path fill="rgb(27,61,74)" stroke="rgb(27,61,74)" stroke-width="1" opacity="0.09411764705882353" d="M 53.5 11 Q 58.6 10.4 60 13.5 L 58.5 13 L 53.5 12 L 53.5 11 Z " /><path fill="rgb(27,61,74)" stroke="rgb(27,61,74)" stroke-width="1" opacity="0.09411764705882353" d="M 45.5 13 L 52 13.5 L 45.5 14 L 44 15.5 L 45 17.5 L 43 16.5 L 45.5 13 Z " /><path fill="rgb(27,61,74)" stroke="rgb(27,61,74)" stroke-width="1" opacity="0.09411764705882353" d="M 61.5 14 L 71 22.5 L 74 29.5 L 74 34.5 L 75.5 36 L 78.5 35 L 77.5 37 Q 73.5 37.5 73 34.5 Q 72.3 20.3 62.5 15 L 61.5 14 Z " /><path fill="rgb(27,61,74)" stroke="rgb(27,61,74)" stroke-width="1" opacity="0.09411764705882353" d="M 59.5 16 L 60.5 18 L 59.5 16 Z " /><path fill="rgb(27,61,74)" stroke="rgb(27,61,74)" stroke-width="1" opacity="0.09411764705882353" d="M 46.5 18 L 52 18.5 L 46.5 19 L 46.5 18 Z " /><path fill="rgb(27,61,74)" stroke="rgb(27,61,74)" stroke-width="1" opacity="0.09411764705882353" d="M 62.5 18 Q 68.9 22.1 70 31.5 L 69 31.5 Q 67.4 22.3 62.5 18 Z " /><path fill="rgb(27,61,74)" stroke="rgb(27,61,74)" stroke-width="1" opacity="0.09411764705882353" d="M 44.5 21 L 44 22.5 Q 43.2 25.1 46.5 24 L 46.5 25 L 43 23.5 L 44.5 21 Z " /><path fill="rgb(27,61,74)" stroke="rgb(27,61,74)" stroke-width="1" opacity="0.09411764705882353" d="M 48.5 21 Q 56.8 21.8 60 27.5 L 61 30.5 L 60 30.5 L 55.5 24 L 48.5 22 L 48.5 21 Z " /><path fill="rgb(27,61,74)" stroke="rgb(27,61,74)" stroke-width="1" opacity="0.09411764705882353" d="M 57.5 21 L 58.5 23 L 57.5 21 Z " /><path fill="rgb(27,61,74)" stroke="rgb(27,61,74)" stroke-width="1" opacity="0.09411764705882353" d="M 60.5 23 L 64 28.5 L 63 28.5 L 60.5 23 Z " /><path fill="rgb(27,61,74)" stroke="rgb(27,61,74)" stroke-width="1" opacity="0.09411764705882353" d="M 48.5 25 Q 54.1 25.5 56 29.5 L 55.5 31 L 52.5 27 L 48.5 26 L 48.5 25 Z " /><path fill="rgb(27,61,74)" stroke="rgb(27,61,74)" stroke-width="1" opacity="0.09411764705882353" d="M 36.5 27 L 44.5 27 L 53 32.5 L 55 37.5 L 54 37.5 L 50.5 31 Q 46.3 26.7 36.5 28 L 28 34.5 L 26.5 40 L 26 36.5 L 29 31 L 36.5 27 Z " /><path fill="rgb(27,61,74)" stroke="rgb(27,61,74)" stroke-width="1" opacity="0.09411764705882353" d="M 64.5 31 L 66.5 36 L 69.5 35 L 68.5 37 Q 64.5 37.5 64 34.5 L 64.5 31 Z " /><path fill="rgb(27,61,74)" stroke="rgb(27,61,74)" stroke-width="1" opacity="0.09411764705882353" d="M 61.5 32 L 62 35.5 L 58.5 37 L 57.5 35 L 61 36 L 61.5 32 Z " /><path fill="rgb(27,61,74)" stroke="rgb(27,61,74)" stroke-width="1" opacity="0.09411764705882353" d="M 37.5 34 L 44 34.5 L 36.5 36 L 37.5 34 Z " /><path fill="rgb(27,61,74)" stroke="rgb(27,61,74)" stroke-width="1" opacity="0.09411764705882353" d="M 45.5 35 Q 49.5 36.5 48 43.5 Q 46 47.5 40.5 48 L 40.5 47 Q 45.3 46.8 47 43.5 Q 47.9 36.5 45.5 35 Z " /><path fill="rgb(27,61,74)" stroke="rgb(27,61,74)" stroke-width="1" opacity="0.09411764705882353" d="M 33.5 39 L 34 41.5 L 33 41.5 L 33.5 39 Z " /><path fill="rgb(27,61,74)" stroke="rgb(27,61,74)" stroke-width="1" opacity="0.09411764705882353" d="M 55.5 39 L 56 42.5 L 55 42.5 L 55.5 39 Z " /><path fill="rgb(27,61,74)" stroke="rgb(27,61,74)" stroke-width="1" opacity="0.09411764705882353" d="M 26.5 41 Q 26.9 48.1 31.5 51 L 41 54.5 L 39.5 55 Q 31.7 53.8 28 48.5 Q 25 45.8 26.5 41 Z " /><path fill="rgb(27,61,74)" stroke="rgb(27,61,74)" stroke-width="1" opacity="0.09411764705882353" d="M 34.5 44 L 35.5 46 L 34.5 44 Z " /><path fill="rgb(27,61,74)" stroke="rgb(27,61,74)" stroke-width="1" opacity="0.09411764705882353" d="M 54.5 44 L 55 45.5 L 48.5 53 L 44.5 54 L 44.5 53 Q 50.3 51.8 53 47.5 L 54.5 44 Z " /><path fill="rgb(27,61,74)" stroke="rgb(27,61,74)" stroke-width="1" opacity="0.09411764705882353" d="M 37.5 46 L 38.5 48 L 37.5 46 Z " /><path fill="rgb(27,61,74)" stroke="rgb(27,61,74)" stroke-width="1" opacity="0.09411764705882353" d="M 4.5 48 L 5 71.5 L 4 71.5 L 4.5 48 Z " /><path fill="rgb(27,61,74)" stroke="rgb(27,61,74)" stroke-width="1" opacity="0.09411764705882353" d="M 10.5 48 L 14 50.5 L 13.5 52 L 11.5 49 L 10.5 48 Z " /><path fill="rgb(27,61,74)" stroke="rgb(27,61,74)" stroke-width="1" opacity="0.09411764705882353" d="M 28.5 55 L 31 55.5 L 28.5 56 L 28.5 55 Z " /><path fill="rgb(27,61,74)" stroke="rgb(27,61,74)" stroke-width="1" opacity="0.09411764705882353" d="M 45.5 64 L 46 68.5 L 45 68.5 L 45.5 64 Z " /><path fill="rgb(27,61,74)" stroke="rgb(27,61,74)" stroke-width="1" opacity="0.09411764705882353" d="M 65.5 75 L 66 77.5 L 65 77.5 L 65.5 75 Z " /><path fill="rgb(27,61,74)" stroke="rgb(27,61,74)" stroke-width="1" opacity="0.09411764705882353" d="M 66.5 79 L 69 79.5 L 66.5 80 L 66.5 79 Z " /><path fill="rgb(5,21,32)" stroke="rgb(5,21,32)" stroke-width="1" opacity="0.9411764705882353" d="M 45.5 6 L 52.5 6 L 59.5 8 L 72 16 L 77 24.5 L 79 34.5 L 75.5 36 L 74 34.5 L 73 26.5 L 66.5 17 L 56.5 11 L 45.5 10 L 44 8.5 L 45.5 6 Z " /><path fill="rgb(5,21,32)" stroke="rgb(5,21,32)" stroke-width="1" opacity="0.9411764705882353" d="M 178.5 9 L 182.5 10 Q 183.7 7.8 185 10.5 L 193 36 L 188 36 L 188 33.5 L 185.5 30 L 176.5 30 L 175 31.5 L 174 36 L 169 36 L 169 33.5 L 178.5 9 Z M 180 15 L 177 25 L 178 26 L 185 26 L 182 18 Q 183 14 180 15 Z " /><path fill="rgb(5,21,32)" stroke="rgb(5,21,32)" stroke-width="1" opacity="0.9411764705882353" d="M 203.5 9 Q 212.2 7.8 215 12.5 L 212.5 16 Q 210.5 12.5 204.5 13 L 202 14 L 201 16.5 L 202 19 L 211.5 21 L 216 25.5 Q 217.3 32.8 213.5 35 Q 210.6 37.6 204.5 37 L 198.5 35 L 196 32.5 L 198.5 29 Q 201 33.5 209.5 32 Q 211.8 31.3 211 27.5 Q 208 24 201.5 24 L 197 20.5 L 196 16.5 L 200.5 10 L 203.5 9 Z " /><path fill="rgb(5,21,32)" stroke="rgb(5,21,32)" stroke-width="1" opacity="0.9411764705882353" d="M 227.5 9 L 231 10.5 L 231 31.5 L 231.5 32 L 237 32 L 237 36 L 219.5 36 L 219 32 L 226 32 L 226 15 L 220 16 L 220 12 L 221.5 12 L 227.5 9 Z " /><path fill="rgb(5,21,32)" stroke="rgb(5,21,32)" stroke-width="1" opacity="0.9411764705882353" d="M 242.5 9 L 243.5 10 L 254.5 10 L 257 9 L 257 14 L 245 14 L 245 20.5 L 247.5 19 Q 256.3 17.3 258 22.5 L 259 28.5 L 258 32.5 L 255.5 35 Q 253.2 37.7 247.5 37 L 243.5 36 L 240 32.5 Q 238.9 29.2 241.5 30 L 243.5 29 Q 244.8 33.3 251.5 32 L 254 26.5 L 251.5 23 L 249.5 22 L 244.5 25 L 241 25 L 241 10.5 L 242.5 9 Z " /><path fill="rgb(5,21,32)" stroke="rgb(5,21,32)" stroke-width="1" opacity="0.9411764705882353" d="M 270.5 9 L 274 10.5 L 274 31.5 L 274.5 32 L 280 32 L 280 36 L 262.5 36 L 262 32 L 269 32 L 269 15 L 263 16 L 263 12 L 264.5 12 L 270.5 9 Z " /><path fill="rgb(5,21,32)" stroke="rgb(5,21,32)" stroke-width="1" opacity="0.9411764705882353" d="M 289.5 9 Q 298.4 8.1 301 13.5 L 303 19.5 L 303 25.5 L 298.5 35 Q 295.6 37.6 289.5 37 L 284 33.5 L 283 31.5 Q 283.8 29.3 287.5 30 L 292.5 33 L 296 30.5 L 298 24.5 L 296.5 24 Q 294.9 27.9 288.5 27 L 284 23.5 L 283 14.5 L 285.5 11 L 289.5 9 Z M 292 13 L 290 14 Q 287 15 288 21 L 292 23 L 296 22 L 297 20 L 296 14 L 292 13 Z " /><path fill="rgb(5,21,32)" stroke="rgb(5,21,32)" stroke-width="1" opacity="0.9411764705882353" d="M 314.5 9 L 319.5 9 L 326 13.5 Q 328.5 19 327 28.5 L 321.5 36 L 314.5 37 L 308 32.5 L 309.5 30 L 311.5 29 L 313 32 L 316.5 33 L 321 30.5 L 322 24.5 L 319.5 26 L 313.5 27 L 308 22.5 L 307 16.5 L 311.5 10 L 314.5 9 Z M 317 13 L 315 14 L 312 18 L 313 21 Q 314 24 319 23 L 322 19 L 321 16 L 317 13 Z " /><path fill="rgb(5,21,32)" stroke="rgb(5,21,32)" stroke-width="1" opacity="0.9411764705882353" d="M 337.5 9 Q 345.1 8.1 348 11 Q 349.6 13.1 349 18.5 L 346 21.5 L 350 25.5 Q 351.8 34.3 346.5 36 L 338.5 37 L 331 31.5 L 332.5 29 L 334.5 28 L 337.5 32 Q 343.5 33.5 345 30.5 Q 346 25 342.5 24 Q 334.7 26.4 337 20 Q 342.4 21.5 344 18.5 Q 345.9 13.1 342.5 14 L 338.5 13 L 334.5 16 L 332 12.5 L 337.5 9 Z " /><path fill="rgb(5,21,32)" stroke="rgb(5,21,32)" stroke-width="1" opacity="0.9411764705882353" d="M 45.5 14 Q 59.5 13.5 65 21.5 Q 69.5 26 70 34.5 L 66.5 36 L 65 34.5 L 64 27.5 L 59.5 22 L 51.5 18 Q 46.1 18.6 44 17 L 45.5 14 Z " /><path fill="rgb(5,21,32)" stroke="rgb(5,21,32)" stroke-width="1" opacity="0.9411764705882353" d="M 45.5 21 Q 55.1 21.4 59 27.5 Q 61.8 30.5 61 36 L 57 34.5 Q 56.9 28.1 52.5 26 L 44 24 L 45.5 21 Z " /><path fill="rgb(5,21,32)" stroke="rgb(5,21,32)" stroke-width="1" opacity="0.9411764705882353" d="M 36.5 28 L 38.5 28 L 44.5 28 L 51 31 L 55 39.5 L 54 42.5 Q 53.4 48.4 49.5 51 L 39.5 54 L 31.5 51 L 29 48.5 Q 25.7 44.8 27 36.5 L 32.5 30 L 36.5 28 Z M 42 33 L 36 35 Q 32 37 33 44 L 39 48 L 45 47 L 49 42 L 48 38 L 42 33 Z " /><path fill="rgb(5,21,32)" stroke="rgb(5,21,32)" stroke-width="1" opacity="0.9411764705882353" d="M 168 40 L 351.5 40 L 352 43 L 168.5 43 L 168 40 Z " /><path fill="rgb(5,21,32)" stroke="rgb(5,21,32)" stroke-width="1" opacity="0.9411764705882353" d="M 5 48 L 10 49.5 L 8 50 L 5.5 54 L 5 48 Z " /><path fill="rgb(5,21,32)" stroke="rgb(5,21,32)" stroke-width="1" opacity="0.9411764705882353" d="M 102.5 62 L 110 63.5 L 107 64 L 107 73.5 L 105 74 L 105 64 L 101.5 64 L 102.5 62 Z " /><path fill="rgb(5,21,32)" stroke="rgb(5,21,32)" stroke-width="1" opacity="0.9411764705882353" d="M 128.5 62 L 129 64.5 L 127 74 Q 122.9 75.7 124 71.5 L 123 67 Q 119.7 65.7 121 70.5 L 120 74 Q 115.1 75.8 117 69.5 L 115 63 Q 118 61.8 117 65.5 L 118.5 70 L 121 63 Q 123.7 61.9 123 64.5 L 125.5 70 L 128.5 62 Z " /><path fill="rgb(5,21,32)" stroke="rgb(5,21,32)" stroke-width="1" opacity="0.9411764705882353" d="M 132.5 62 L 133 73.5 L 131 72.5 L 131 63.5 L 132.5 62 Z " /><path fill="rgb(5,21,32)" stroke="rgb(5,21,32)" stroke-width="1" opacity="0.9411764705882353" d="M 137.5 62 L 144 63.5 L 139 64 Q 136.9 69.2 141.5 68 L 143 67.5 L 143 69 L 139 69 L 139 74 L 137 74 L 137.5 62 Z " /><path fill="rgb(5,21,32)" stroke="rgb(5,21,32)" stroke-width="1" opacity="0.9411764705882353" d="M 147.5 62 L 148 74 L 146 73.5 L 146 63.5 L 147.5 62 Z " /><path fill="rgb(5,21,32)" stroke="rgb(5,21,32)" stroke-width="1" opacity="0.9411764705882353" d="M 155.5 62 L 158 64.5 L 161 73.5 L 159.5 74 L 158 71 L 153 71 L 153 72.5 L 150.5 74 L 151 72.5 Q 151.6 65.6 155.5 62 Z M 156 65 L 154 68 Q 153 72 157 70 L 156 65 Z " /><path fill="rgb(5,21,32)" stroke="rgb(5,21,32)" stroke-width="1" opacity="0.9411764705882353" d="M 164.5 62 L 169.5 69 L 171 68.5 L 170 66.5 L 171 64.5 Q 168.8 63.3 171.5 62 L 172 74 L 169 72.5 L 165.5 66 L 165 74 L 163 73.5 L 163 63.5 L 164.5 62 Z " /><path fill="rgb(5,21,32)" stroke="rgb(5,21,32)" stroke-width="1" opacity="0.9411764705882353" d="M 183.5 62 L 188 63 Q 189.1 65.7 186.5 65 L 182 64 L 181 70.5 Q 181.8 72.8 185.5 72 L 187 69 L 184 68.5 L 189 68 L 189 73.5 L 187.5 74 L 185.5 73 L 181.5 74 Q 178 72 179 65.5 L 183.5 62 Z " /><path fill="rgb(5,21,32)" stroke="rgb(5,21,32)" stroke-width="1" opacity="0.9411764705882353" d="M 192.5 62 L 194 63.5 L 194 72 L 199 72 L 199 74 L 192 74 L 192.5 62 Z " /><path fill="rgb(5,21,32)" stroke="rgb(5,21,32)" stroke-width="1" opacity="0.9411764705882353" d="M 204.5 62 Q 209.3 62.3 211 65.5 Q 211.6 70.9 210 73 L 203.5 74 Q 199.3 72.3 201 64.5 L 204.5 62 Z M 205 64 Q 202 65 203 71 Q 204 73 208 72 Q 210 71 209 66 Q 208 63 205 64 Z " /><path fill="rgb(5,21,32)" stroke="rgb(5,21,32)" stroke-width="1" opacity="0.9411764705882353" d="M 237.5 62 L 239 63.5 L 239 72 L 244 72 L 244 74 L 237 74 L 237.5 62 Z " /><path fill="rgb(5,21,32)" stroke="rgb(5,21,32)" stroke-width="1" opacity="0.9411764705882353" d="M 251.5 62 L 256.5 69 L 258 68.5 L 257 65.5 L 258.5 62 L 259 74 L 256 72.5 L 252.5 66 L 252 74 L 250 73.5 L 250 63.5 L 251.5 62 Z " /><path fill="rgb(5,21,32)" stroke="rgb(5,21,32)" stroke-width="1" opacity="0.9411764705882353" d="M 263.5 62 L 265 63.5 L 265 72 Q 268.8 73 270 70.5 L 270 63.5 L 272 63 L 272 71.5 L 269.5 74 Q 264 75 263 71.5 L 263.5 62 Z " /><path fill="rgb(5,21,32)" stroke="rgb(5,21,32)" stroke-width="1" opacity="0.9411764705882353" d="M 277.5 62 L 282 63 Q 283.1 65.7 280.5 65 L 277.5 64 Q 274.5 65.5 277.5 67 L 283 69.5 Q 283.5 73.5 280.5 74 Q 276 75 275 72.5 L 275.5 71 L 279.5 72 Q 282.5 70.5 279.5 69 L 275 68 L 275 63 L 276.5 63 L 277.5 62 Z " /><path fill="rgb(5,21,32)" stroke="rgb(5,21,32)" stroke-width="1" opacity="0.9411764705882353" d="M 288.5 62 L 291 63.5 L 294 74 Q 290.7 75.1 292 71 L 287.5 71 L 286 74 Q 283.3 75.1 284 72.5 L 288.5 62 Z M 290 65 Q 287 66 288 70 L 291 69 L 290 65 Z " /><path fill="rgb(5,21,32)" stroke="rgb(5,21,32)" stroke-width="1" opacity="0.9411764705882353" d="M 297.5 62 L 300 63 L 303.5 70 L 304 63 L 306 63.5 L 306 74 L 302 71.5 L 298.5 66 L 297.5 74 L 297.5 62 Z " /><path fill="rgb(5,21,32)" stroke="rgb(5,21,32)" stroke-width="1" opacity="0.9411764705882353" d="M 322.5 62 L 325 63 L 328 74 Q 325.3 75.1 326 72.5 Q 325.3 70.3 321.5 71 L 320 74 Q 317.3 75.1 318 72.5 L 322.5 62 Z M 322 65 L 321 69 L 324 70 Q 326 69 324 68 Q 325 64 322 65 Z " /><path fill="rgb(5,21,32)" stroke="rgb(5,21,32)" stroke-width="1" opacity="0.9411764705882353" d="M 331.5 62 L 338 63 L 337 69.5 L 339 73.5 L 337.5 74 L 334.5 69 L 332 69 L 332 74 L 330 74 L 330 63.5 L 331.5 62 Z M 332 64 L 334 68 L 337 66 Q 336 63 332 64 Z " /><path fill="rgb(5,21,32)" stroke="rgb(5,21,32)" stroke-width="1" opacity="0.9411764705882353" d="M 92 63 Q 98.1 61.3 100 64.5 Q 100.8 68.3 98.5 69 Q 94.8 68.3 94 70.5 Q 95.3 75.3 92 74 L 92 63 Z M 94 64 Q 92 69 97 68 L 98 66 L 94 64 Z " /><path fill="rgb(5,21,32)" stroke="rgb(5,21,32)" stroke-width="1" opacity="0.9411764705882353" d="M 214 63 Q 220.1 61.3 222 64.5 L 221 67.5 L 223 71.5 Q 221.1 75.8 214 74 L 214 63 Z M 216 64 Q 214 69 220 67 Q 222 62 216 64 Z M 216 69 L 216 72 Q 220 73 221 71 L 221 69 L 216 69 Z " /><path fill="rgb(5,21,32)" stroke="rgb(5,21,32)" stroke-width="1" opacity="0.9411764705882353" d="M 228.5 63 Q 231.8 61.9 231 64.5 L 234 74 Q 230.7 75.1 232 71 L 227.5 71 L 226 74 Q 223.3 75.1 224 72.5 L 228.5 63 Z M 230 65 Q 227 66 228 70 L 231 69 L 230 65 Z " /><path fill="rgb(5,21,32)" stroke="rgb(5,21,32)" stroke-width="1" opacity="0.9411764705882353" d="M 308.5 63 L 317 63.5 L 313 65.5 L 312.5 74 Q 309.8 72.8 312 71.5 Q 313.5 65.5 310.5 64 Q 307.5 64.5 308.5 63 Z " /><path fill="rgb(5,21,32)" stroke="rgb(5,21,32)" stroke-width="1" opacity="0.9411764705882353" d="M 344.5 63 Q 347.8 61.9 347 64.5 L 350 74 Q 346.7 75.1 348 71 L 343.5 71 L 342 74 Q 339.3 75.1 340 72.5 L 344.5 63 Z M 346 65 Q 343 66 344 70 L 347 69 L 346 65 Z " /><path fill="rgb(5,21,32)" stroke="rgb(5,21,32)" stroke-width="1" opacity="0.9411764705882353" d="M 47 69 L 49 69.5 L 46 71.5 L 47 69 Z " /><path fill="rgb(145,184,51)" stroke="rgb(145,184,51)" stroke-width="1" opacity="0.8745098039215686" d="M 69.5 14 L 70.5 16 L 69.5 14 Z " /><path fill="rgb(145,184,51)" stroke="rgb(145,184,51)" stroke-width="1" opacity="0.8745098039215686" d="M 48.5 39 L 49 41.5 L 48 41.5 L 48.5 39 Z " /><path fill="rgb(145,184,51)" stroke="rgb(145,184,51)" stroke-width="1" opacity="0.8745098039215686" d="M 10.5 49 L 13 50.5 L 14 52.5 L 14 71.5 L 16.5 74 L 20.5 75 L 26 71.5 L 26 56.5 L 27.5 55 Q 28.8 57.3 33.5 56 L 35 57.5 L 36 59.5 L 36 71.5 L 38.5 74 Q 45 75 47 71.5 L 46 70.5 L 46 60.5 L 51.5 54 Q 55.8 50.3 65.5 52 L 73 57.5 L 75 61.5 L 75 75.5 L 74 78 Q 71.6 79.8 65.5 79 L 66 77.5 Q 63.5 72 65 62.5 L 63.5 61 L 58.5 60 L 55 63.5 L 55 74.5 L 50.5 80 L 43.5 83 L 38.5 83 L 30.5 79 L 25.5 82 L 18.5 83 Q 10 81.5 6 75.5 L 5 72.5 L 5 54.5 L 8 50 L 10.5 49 Z M 47 69 L 47 71 L 49 70 L 47 69 Z " /><path fill="rgb(10,23,29)" stroke="rgb(10,23,29)" stroke-width="1" opacity="0.4117647058823529" d="M 179.5 9 L 183 9.5 L 179.5 10 L 179.5 9 Z " /><path fill="rgb(10,23,29)" stroke="rgb(10,23,29)" stroke-width="1" opacity="0.4117647058823529" d="M 243.5 9 L 255 9.5 L 243.5 10 L 243.5 9 Z " /><path fill="rgb(10,23,29)" stroke="rgb(10,23,29)" stroke-width="1" opacity="0.4117647058823529" d="M 199.5 10 L 197.5 13 L 199.5 10 Z " /><path fill="rgb(10,23,29)" stroke="rgb(10,23,29)" stroke-width="1" opacity="0.4117647058823529" d="M 299.5 11 L 300.5 13 L 299.5 11 Z " /><path fill="rgb(10,23,29)" stroke="rgb(10,23,29)" stroke-width="1" opacity="0.4117647058823529" d="M 219.5 12 L 220 16 L 222 16.5 L 219 17 L 219.5 12 Z " /><path fill="rgb(10,23,29)" stroke="rgb(10,23,29)" stroke-width="1" opacity="0.4117647058823529" d="M 262.5 12 L 263 16 L 265 16.5 L 262 17 L 262.5 12 Z " /><path fill="rgb(10,23,29)" stroke="rgb(10,23,29)" stroke-width="1" opacity="0.4117647058823529" d="M 204.5 13 L 208 13.5 L 204.5 14 L 204.5 13 Z " /><path fill="rgb(10,23,29)" stroke="rgb(10,23,29)" stroke-width="1" opacity="0.4117647058823529" d="M 214.5 13 L 213.5 15 L 214.5 13 Z " /><path fill="rgb(10,23,29)" stroke="rgb(10,23,29)" stroke-width="1" opacity="0.4117647058823529" d="M 291.5 13 L 294 13.5 L 291.5 14 L 291.5 13 Z " /><path fill="rgb(10,23,29)" stroke="rgb(10,23,29)" stroke-width="1" opacity="0.4117647058823529" d="M 338.5 13 L 342 13.5 L 338.5 14 L 338.5 13 Z " /><path fill="rgb(10,23,29)" stroke="rgb(10,23,29)" stroke-width="1" opacity="0.4117647058823529" d="M 210.5 14 L 211.5 16 L 210.5 14 Z " /><path fill="rgb(10,23,29)" stroke="rgb(10,23,29)" stroke-width="1" opacity="0.4117647058823529" d="M 245.5 14 L 246 20.5 L 245 20.5 L 245.5 14 Z " /><path fill="rgb(10,23,29)" stroke="rgb(10,23,29)" stroke-width="1" opacity="0.4117647058823529" d="M 289.5 14 L 288.5 16 L 289.5 14 Z " /><path fill="rgb(10,23,29)" stroke="rgb(10,23,29)" stroke-width="1" opacity="0.4117647058823529" d="M 332.5 14 L 334.5 16 L 337 14.5 Q 333.8 19.8 332.5 14 Z " /><path fill="rgb(10,23,29)" stroke="rgb(10,23,29)" stroke-width="1" opacity="0.4117647058823529" d="M 225.5 15 L 226 31.5 L 225 31.5 L 225.5 15 Z " /><path fill="rgb(10,23,29)" stroke="rgb(10,23,29)" stroke-width="1" opacity="0.4117647058823529" d="M 268.5 15 L 269 31.5 L 268 31.5 L 268.5 15 Z " /><path fill="rgb(10,23,29)" stroke="rgb(10,23,29)" stroke-width="1" opacity="0.4117647058823529" d="M 282.5 16 L 283 19.5 L 282 19.5 L 282.5 16 Z " /><path fill="rgb(10,23,29)" stroke="rgb(10,23,29)" stroke-width="1" opacity="0.4117647058823529" d="M 66.5 17 L 67.5 19 L 66.5 17 Z " /><path fill="rgb(10,23,29)" stroke="rgb(10,23,29)" stroke-width="1" opacity="0.4117647058823529" d="M 196.5 17 L 197 19.5 L 196 19.5 L 196.5 17 Z " /><path fill="rgb(10,23,29)" stroke="rgb(10,23,29)" stroke-width="1" opacity="0.4117647058823529" d="M 249.5 18 L 254 18.5 L 249.5 19 L 249.5 18 Z " /><path fill="rgb(10,23,29)" stroke="rgb(10,23,29)" stroke-width="1" opacity="0.4117647058823529" d="M 343.5 18 L 342.5 20 L 343.5 18 Z " /><path fill="rgb(10,23,29)" stroke="rgb(10,23,29)" stroke-width="1" opacity="0.4117647058823529" d="M 255.5 19 L 257.5 22 L 255.5 19 Z " /><path fill="rgb(10,23,29)" stroke="rgb(10,23,29)" stroke-width="1" opacity="0.4117647058823529" d="M 327.5 19 L 328 25.5 L 327 25.5 L 327.5 19 Z " /><path fill="rgb(10,23,29)" stroke="rgb(10,23,29)" stroke-width="1" opacity="0.4117647058823529" d="M 240.5 20 L 241 24.5 L 240 24.5 L 240.5 20 Z " /><path fill="rgb(10,23,29)" stroke="rgb(10,23,29)" stroke-width="1" opacity="0.4117647058823529" d="M 288.5 20 L 289.5 22 L 288.5 20 Z " /><path fill="rgb(10,23,29)" stroke="rgb(10,23,29)" stroke-width="1" opacity="0.4117647058823529" d="M 336.5 20 L 337 24 L 343 24.5 L 337.5 25 Q 334.8 23.8 336.5 20 Z " /><path fill="rgb(10,23,29)" stroke="rgb(10,23,29)" stroke-width="1" opacity="0.4117647058823529" d="M 213.5 22 L 215.5 25 L 213.5 22 Z " /><path fill="rgb(10,23,29)" stroke="rgb(10,23,29)" stroke-width="1" opacity="0.4117647058823529" d="M 291.5 22 L 294 22.5 L 291.5 23 L 291.5 22 Z " /><path fill="rgb(10,23,29)" stroke="rgb(10,23,29)" stroke-width="1" opacity="0.4117647058823529" d="M 315.5 22 L 319 22.5 L 315.5 23 L 315.5 22 Z " /><path fill="rgb(10,23,29)" stroke="rgb(10,23,29)" stroke-width="1" opacity="0.4117647058823529" d="M 347.5 22 L 349.5 25 L 347.5 22 Z " /><path fill="rgb(10,23,29)" stroke="rgb(10,23,29)" stroke-width="1" opacity="0.4117647058823529" d="M 246.5 23 L 244.5 26 L 246.5 23 Z " /><path fill="rgb(10,23,29)" stroke="rgb(10,23,29)" stroke-width="1" opacity="0.4117647058823529" d="M 251.5 23 L 252.5 25 L 251.5 23 Z " /><path fill="rgb(10,23,29)" stroke="rgb(10,23,29)" stroke-width="1" opacity="0.4117647058823529" d="M 308.5 23 L 310.5 26 L 308.5 23 Z " /><path fill="rgb(10,23,29)" stroke="rgb(10,23,29)" stroke-width="1" opacity="0.4117647058823529" d="M 209.5 26 L 210.5 28 L 209.5 26 Z " /><path fill="rgb(10,23,29)" stroke="rgb(10,23,29)" stroke-width="1" opacity="0.4117647058823529" d="M 253.5 26 L 254 28.5 L 253 28.5 L 253.5 26 Z " /><path fill="rgb(10,23,29)" stroke="rgb(10,23,29)" stroke-width="1" opacity="0.4117647058823529" d="M 350.5 26 L 351 30.5 L 350 30.5 L 350.5 26 Z " /><path fill="rgb(10,23,29)" stroke="rgb(10,23,29)" stroke-width="1" opacity="0.4117647058823529" d="M 198.5 28 L 196.5 31 L 198.5 28 Z " /><path fill="rgb(10,23,29)" stroke="rgb(10,23,29)" stroke-width="1" opacity="0.4117647058823529" d="M 243.5 28 L 244.5 30 L 243.5 28 Z " /><path fill="rgb(10,23,29)" stroke="rgb(10,23,29)" stroke-width="1" opacity="0.4117647058823529" d="M 210.5 29 L 211 30.5 L 209 31.5 L 210.5 29 Z " /><path fill="rgb(10,23,29)" stroke="rgb(10,23,29)" stroke-width="1" opacity="0.4117647058823529" d="M 295.5 30 L 294.5 32 L 295.5 30 Z " /><path fill="rgb(10,23,29)" stroke="rgb(10,23,29)" stroke-width="1" opacity="0.4117647058823529" d="M 308.5 30 L 307.5 32 L 308.5 30 Z " /><path fill="rgb(10,23,29)" stroke="rgb(10,23,29)" stroke-width="1" opacity="0.4117647058823529" d="M 320.5 30 L 319.5 32 L 320.5 30 Z " /><path fill="rgb(10,23,29)" stroke="rgb(10,23,29)" stroke-width="1" opacity="0.4117647058823529" d="M 336.5 30 L 337.5 32 L 336.5 30 Z " /><path fill="rgb(10,23,29)" stroke="rgb(10,23,29)" stroke-width="1" opacity="0.4117647058823529" d="M 344.5 30 L 343.5 32 L 344.5 30 Z " /><path fill="rgb(10,23,29)" stroke="rgb(10,23,29)" stroke-width="1" opacity="0.4117647058823529" d="M 331.5 32 L 334.5 36 L 331.5 32 Z " /><path fill="rgb(10,23,29)" stroke="rgb(10,23,29)" stroke-width="1" opacity="0.4117647058823529" d="M 324.5 33 L 323.5 35 L 324.5 33 Z " /><path fill="rgb(10,23,29)" stroke="rgb(10,23,29)" stroke-width="1" opacity="0.4117647058823529" d="M 35.5 35 L 34.5 37 L 35.5 35 Z " /><path fill="rgb(10,23,29)" stroke="rgb(10,23,29)" stroke-width="1" opacity="0.4117647058823529" d="M 168.5 35 L 174 36.5 L 168 37 L 168.5 35 Z " /><path fill="rgb(10,23,29)" stroke="rgb(10,23,29)" stroke-width="1" opacity="0.4117647058823529" d="M 193.5 35 L 194 37 L 188 36.5 L 193.5 35 Z " /><path fill="rgb(10,23,29)" stroke="rgb(10,23,29)" stroke-width="1" opacity="0.4117647058823529" d="M 219.5 36 L 237 36.5 L 219.5 37 L 219.5 36 Z " /><path fill="rgb(10,23,29)" stroke="rgb(10,23,29)" stroke-width="1" opacity="0.4117647058823529" d="M 262.5 36 L 280 36.5 L 262.5 37 L 262.5 36 Z " /><path fill="rgb(10,23,29)" stroke="rgb(10,23,29)" stroke-width="1" opacity="0.4117647058823529" d="M 352.5 40 L 353 42.5 L 351.5 44 L 168.5 44 L 168.5 43 L 351.5 43 L 352.5 40 Z " /><path fill="rgb(10,23,29)" stroke="rgb(10,23,29)" stroke-width="1" opacity="0.4117647058823529" d="M 92.5 62 L 98 62.5 L 92.5 63 L 92.5 62 Z " /><path fill="rgb(10,23,29)" stroke="rgb(10,23,29)" stroke-width="1" opacity="0.4117647058823529" d="M 103.5 62 Q 109.5 60.5 111 63.5 L 109.5 63 L 103.5 63 L 103.5 62 Z " /><path fill="rgb(10,23,29)" stroke="rgb(10,23,29)" stroke-width="1" opacity="0.4117647058823529" d="M 121.5 62 L 124 63.5 L 123.5 65 L 123 63 L 121.5 62 Z " /><path fill="rgb(10,23,29)" stroke="rgb(10,23,29)" stroke-width="1" opacity="0.4117647058823529" d="M 133.5 62 L 134 73.5 L 133 73.5 L 133.5 62 Z " /><path fill="rgb(10,23,29)" stroke="rgb(10,23,29)" stroke-width="1" opacity="0.4117647058823529" d="M 136.5 62 L 137 73.5 L 136 73.5 L 136.5 62 Z " /><path fill="rgb(10,23,29)" stroke="rgb(10,23,29)" stroke-width="1" opacity="0.4117647058823529" d="M 138.5 62 L 144 62.5 L 138.5 63 L 138.5 62 Z " /><path fill="rgb(10,23,29)" stroke="rgb(10,23,29)" stroke-width="1" opacity="0.4117647058823529" d="M 154.5 62 L 154 63.5 L 153.5 65 L 153 63.5 L 154.5 62 Z " /><path fill="rgb(10,23,29)" stroke="rgb(10,23,29)" stroke-width="1" opacity="0.4117647058823529" d="M 156.5 62 L 157.5 64 L 156.5 62 Z " /><path fill="rgb(10,23,29)" stroke="rgb(10,23,29)" stroke-width="1" opacity="0.4117647058823529" d="M 191.5 62 L 192 73.5 L 191 73.5 L 191.5 62 Z " /><path fill="rgb(10,23,29)" stroke="rgb(10,23,29)" stroke-width="1" opacity="0.4117647058823529" d="M 214.5 62 Q 220.5 60.5 222 63.5 L 220.5 63 L 214.5 63 L 214.5 62 Z " /><path fill="rgb(10,23,29)" stroke="rgb(10,23,29)" stroke-width="1" opacity="0.4117647058823529" d="M 228.5 62 L 231 62.5 L 227.5 64 L 228.5 62 Z " /><path fill="rgb(10,23,29)" stroke="rgb(10,23,29)" stroke-width="1" opacity="0.4117647058823529" d="M 236.5 62 L 237 73.5 L 236 73.5 L 236.5 62 Z " /><path fill="rgb(10,23,29)" stroke="rgb(10,23,29)" stroke-width="1" opacity="0.4117647058823529" d="M 259.5 62 L 260 73.5 L 259 73.5 L 259.5 62 Z " /><path fill="rgb(10,23,29)" stroke="rgb(10,23,29)" stroke-width="1" opacity="0.4117647058823529" d="M 296.5 62 L 297 73.5 L 296 73.5 L 296.5 62 Z " /><path fill="rgb(10,23,29)" stroke="rgb(10,23,29)" stroke-width="1" opacity="0.4117647058823529" d="M 308.5 62 L 317 62.5 L 308.5 63 L 308.5 62 Z " /><path fill="rgb(10,23,29)" stroke="rgb(10,23,29)" stroke-width="1" opacity="0.4117647058823529" d="M 332.5 62 L 337 62.5 L 332.5 63 L 332.5 62 Z " /><path fill="rgb(10,23,29)" stroke="rgb(10,23,29)" stroke-width="1" opacity="0.4117647058823529" d="M 344.5 62 L 347 62.5 L 343.5 64 L 344.5 62 Z " /><path fill="rgb(10,23,29)" stroke="rgb(10,23,29)" stroke-width="1" opacity="0.4117647058823529" d="M 148.5 63 L 149 73.5 L 148 73.5 L 148.5 63 Z " /><path fill="rgb(10,23,29)" stroke="rgb(10,23,29)" stroke-width="1" opacity="0.4117647058823529" d="M 172.5 63 L 173 73.5 L 172 73.5 L 172.5 63 Z " /><path fill="rgb(10,23,29)" stroke="rgb(10,23,29)" stroke-width="1" opacity="0.4117647058823529" d="M 209.5 63 L 210.5 65 L 209.5 63 Z " /><path fill="rgb(10,23,29)" stroke="rgb(10,23,29)" stroke-width="1" opacity="0.4117647058823529" d="M 262.5 63 L 263 70.5 L 262 70.5 L 262.5 63 Z " /><path fill="rgb(10,23,29)" stroke="rgb(10,23,29)" stroke-width="1" opacity="0.4117647058823529" d="M 104.5 64 L 105 73.5 L 104 73.5 L 104.5 64 Z " /><path fill="rgb(10,23,29)" stroke="rgb(10,23,29)" stroke-width="1" opacity="0.4117647058823529" d="M 140.5 64 L 144 64.5 L 140.5 65 L 140.5 64 Z " /><path fill="rgb(10,23,29)" stroke="rgb(10,23,29)" stroke-width="1" opacity="0.4117647058823529" d="M 188.5 64 L 187.5 66 L 188.5 64 Z " /><path fill="rgb(10,23,29)" stroke="rgb(10,23,29)" stroke-width="1" opacity="0.4117647058823529" d="M 204.5 64 L 203.5 66 L 204.5 64 Z " /><path fill="rgb(10,23,29)" stroke="rgb(10,23,29)" stroke-width="1" opacity="0.4117647058823529" d="M 207.5 64 L 209 66.5 L 208 66.5 L 207.5 64 Z " /><path fill="rgb(10,23,29)" stroke="rgb(10,23,29)" stroke-width="1" opacity="0.4117647058823529" d="M 274.5 64 L 275 66.5 L 274 66.5 L 274.5 64 Z " /><path fill="rgb(10,23,29)" stroke="rgb(10,23,29)" stroke-width="1" opacity="0.4117647058823529" d="M 277.5 64 L 277.5 67 Q 274.5 65.5 277.5 64 Z " /><path fill="rgb(10,23,29)" stroke="rgb(10,23,29)" stroke-width="1" opacity="0.4117647058823529" d="M 314.5 64 L 316 64.5 L 314 65 L 313.5 74 L 313 65.5 L 314.5 64 Z " /><path fill="rgb(10,23,29)" stroke="rgb(10,23,29)" stroke-width="1" opacity="0.4117647058823529" d="M 332.5 64 L 333 67 L 335 67.5 L 333.5 68 Q 331 67 332.5 64 Z " /><path fill="rgb(10,23,29)" stroke="rgb(10,23,29)" stroke-width="1" opacity="0.4117647058823529" d="M 335.5 64 L 336.5 66 L 335.5 64 Z " /><path fill="rgb(10,23,29)" stroke="rgb(10,23,29)" stroke-width="1" opacity="0.4117647058823529" d="M 338.5 64 L 339 66.5 L 337 67.5 L 338.5 64 Z " /><path fill="rgb(10,23,29)" stroke="rgb(10,23,29)" stroke-width="1" opacity="0.4117647058823529" d="M 229.5 65 L 228.5 67 L 229.5 65 Z " /><path fill="rgb(10,23,29)" stroke="rgb(10,23,29)" stroke-width="1" opacity="0.4117647058823529" d="M 289.5 65 L 288.5 67 L 289.5 65 Z " /><path fill="rgb(10,23,29)" stroke="rgb(10,23,29)" stroke-width="1" opacity="0.4117647058823529" d="M 311.5 65 L 312 71.5 L 311 71.5 L 311.5 65 Z " /><path fill="rgb(10,23,29)" stroke="rgb(10,23,29)" stroke-width="1" opacity="0.4117647058823529" d="M 345.5 65 L 344.5 67 L 345.5 65 Z " /><path fill="rgb(10,23,29)" stroke="rgb(10,23,29)" stroke-width="1" opacity="0.4117647058823529" d="M 200.5 66 L 201 69.5 L 200 69.5 L 200.5 66 Z " /><path fill="rgb(10,23,29)" stroke="rgb(10,23,29)" stroke-width="1" opacity="0.4117647058823529" d="M 298.5 66 L 299 73.5 L 298 73.5 L 298.5 66 Z " /><path fill="rgb(10,23,29)" stroke="rgb(10,23,29)" stroke-width="1" opacity="0.4117647058823529" d="M 124.5 67 L 126 69.5 L 124 68.5 L 124.5 67 Z " /><path fill="rgb(10,23,29)" stroke="rgb(10,23,29)" stroke-width="1" opacity="0.4117647058823529" d="M 139.5 67 L 142 67.5 L 139.5 68 L 139.5 67 Z " /><path fill="rgb(10,23,29)" stroke="rgb(10,23,29)" stroke-width="1" opacity="0.4117647058823529" d="M 143.5 67 L 144 68.5 L 142 69.5 L 143.5 67 Z " /><path fill="rgb(10,23,29)" stroke="rgb(10,23,29)" stroke-width="1" opacity="0.4117647058823529" d="M 184.5 67 L 189 67.5 L 184.5 68 L 184.5 67 Z " /><path fill="rgb(10,23,29)" stroke="rgb(10,23,29)" stroke-width="1" opacity="0.4117647058823529" d="M 119.5 68 L 118.5 70 L 119.5 68 Z " /><path fill="rgb(10,23,29)" stroke="rgb(10,23,29)" stroke-width="1" opacity="0.4117647058823529" d="M 230.5 68 L 229.5 70 L 228 69.5 L 230.5 68 Z " /><path fill="rgb(10,23,29)" stroke="rgb(10,23,29)" stroke-width="1" opacity="0.4117647058823529" d="M 290.5 68 L 289.5 70 L 288 69.5 L 290.5 68 Z " /><path fill="rgb(10,23,29)" stroke="rgb(10,23,29)" stroke-width="1" opacity="0.4117647058823529" d="M 321.5 68 L 323.5 69 L 325 68.5 L 322.5 70 L 321.5 68 Z " /><path fill="rgb(10,23,29)" stroke="rgb(10,23,29)" stroke-width="1" opacity="0.4117647058823529" d="M 346.5 68 L 345.5 70 L 344 69.5 L 346.5 68 Z " /><path fill="rgb(10,23,29)" stroke="rgb(10,23,29)" stroke-width="1" opacity="0.4117647058823529" d="M 95.5 69 L 98 69.5 L 95.5 70 L 95.5 69 Z " /><path fill="rgb(10,23,29)" stroke="rgb(10,23,29)" stroke-width="1" opacity="0.4117647058823529" d="M 154.5 69 L 157 69.5 L 154.5 70 L 154.5 69 Z " /><path fill="rgb(10,23,29)" stroke="rgb(10,23,29)" stroke-width="1" opacity="0.4117647058823529" d="M 184.5 69 Q 187.8 67.9 187 70.5 L 185.5 70 L 184.5 69 Z " /><path fill="rgb(10,23,29)" stroke="rgb(10,23,29)" stroke-width="1" opacity="0.4117647058823529" d="M 279.5 69 L 280.5 71 L 279.5 69 Z " /><path fill="rgb(10,23,29)" stroke="rgb(10,23,29)" stroke-width="1" opacity="0.4117647058823529" d="M 332.5 69 L 333 73.5 L 332 73.5 L 332.5 69 Z " /><path fill="rgb(10,23,29)" stroke="rgb(10,23,29)" stroke-width="1" opacity="0.4117647058823529" d="M 227.5 71 L 226.5 73 L 227.5 71 Z " /><path fill="rgb(10,23,29)" stroke="rgb(10,23,29)" stroke-width="1" opacity="0.4117647058823529" d="M 274.5 71 L 276 73.5 L 274 72.5 L 274.5 71 Z " /><path fill="rgb(10,23,29)" stroke="rgb(10,23,29)" stroke-width="1" opacity="0.4117647058823529" d="M 287.5 71 L 289 71.5 L 286.5 73 L 287.5 71 Z " /><path fill="rgb(10,23,29)" stroke="rgb(10,23,29)" stroke-width="1" opacity="0.4117647058823529" d="M 343.5 71 L 346 71.5 L 342.5 73 L 343.5 71 Z " /><path fill="rgb(10,23,29)" stroke="rgb(10,23,29)" stroke-width="1" opacity="0.4117647058823529" d="M 222.5 72 L 221.5 74 L 222.5 72 Z " /><path fill="rgb(10,23,29)" stroke="rgb(10,23,29)" stroke-width="1" opacity="0.4117647058823529" d="M 263.5 72 L 264.5 74 L 263.5 72 Z " /><path fill="rgb(10,23,29)" stroke="rgb(10,23,29)" stroke-width="1" opacity="0.4117647058823529" d="M 271.5 72 L 270.5 74 L 271.5 72 Z " /><path fill="rgb(10,23,29)" stroke="rgb(10,23,29)" stroke-width="1" opacity="0.4117647058823529" d="M 282.5 72 L 281.5 74 L 282.5 72 Z " /></svg>